<?xml version="1.0" encoding="utf-8"?>
<!-- Generator: Adobe Illustrator 24.0.3, SVG Export Plug-In . SVG Version: 6.00 Build 0)  -->
<svg version="1.1" id="Layer_1" xmlns="http://www.w3.org/2000/svg" xmlns:xlink="http://www.w3.org/1999/xlink" x="0px" y="0px"
	 viewBox="0 0 149.94 46.25" style="enable-background:new 0 0 149.94 46.25;" xml:space="preserve">
<style type="text/css">
	.st0{fill-rule:evenodd;clip-rule:evenodd;fill:url(#SVGID_1_);}
	.st1{fill-rule:evenodd;clip-rule:evenodd;fill:url(#SVGID_2_);}
	.st2{fill-rule:evenodd;clip-rule:evenodd;fill:url(#SVGID_3_);}
	.st3{fill-rule:evenodd;clip-rule:evenodd;fill:url(#SVGID_4_);}
	.st4{fill-rule:evenodd;clip-rule:evenodd;fill:url(#SVGID_5_);}
	.st5{fill:#23304D;}
</style>
<g>
	<linearGradient id="SVGID_1_" gradientUnits="userSpaceOnUse" x1="0" y1="24.0799" x2="44.3723" y2="24.0799">
		<stop  offset="0" style="stop-color:#F05126"/>
		<stop  offset="0.2546" style="stop-color:#F05326"/>
		<stop  offset="0.4217" style="stop-color:#F05B27"/>
		<stop  offset="0.5636" style="stop-color:#F06827"/>
		<stop  offset="0.6915" style="stop-color:#F17827"/>
		<stop  offset="0.81" style="stop-color:#F18B28"/>
		<stop  offset="0.92" style="stop-color:#F3A129"/>
		<stop  offset="1" style="stop-color:#F4B628"/>
	</linearGradient>
	<path class="st0" d="M41.68,26.01c-6.03-0.37-9.14-7.17-5.69-11.89c0.86-1.18,0.15-2.24-0.66-3.06c-0.85-0.86-1.85-1.58-3.18-0.76
		c-5.4,3.31-11.1,0.57-11.85-5.7c-0.29-2.39-1.29-3.08-3.6-2.47C6.27,4.85-1.2,14.87,0.16,26.29c1.4,11.69,10.85,19.97,22.28,19.96
		c10.26-0.01,19.14-6.82,21.72-16.67C44.77,27.27,44.09,26.16,41.68,26.01z M12.44,33.62c-1.82-0.02-3.25-1.5-3.24-3.33
		c0.02-1.79,1.55-3.3,3.32-3.27c1.78,0.03,3.29,1.58,3.26,3.35C15.76,32.18,14.24,33.64,12.44,33.62z M20.95,23.23
		C22,23.2,22.97,24.14,23,25.2c0.03,1.06-0.89,2.03-1.96,2.06c-1.06,0.03-2.01-0.89-2.03-1.97C18.98,24.22,19.89,23.25,20.95,23.23z
		 M22.07,39.04c-1.37,0.01-2.52-1.14-2.55-2.55c-0.02-1.44,1.04-2.58,2.44-2.63c1.46-0.05,2.63,1.11,2.62,2.6
		C24.58,37.87,23.45,39.03,22.07,39.04z M31.1,32.8c-1.87-0.01-3.24-1.4-3.23-3.27c0.01-1.87,1.4-3.24,3.28-3.23
		c1.87,0.01,3.24,1.4,3.23,3.28C34.36,31.45,32.98,32.81,31.1,32.8z"/>
	<linearGradient id="SVGID_2_" gradientUnits="userSpaceOnUse" x1="46.0001" y1="1.2992" x2="48.5706" y2="1.2992">
		<stop  offset="0" style="stop-color:#F05126"/>
		<stop  offset="0.2546" style="stop-color:#F05326"/>
		<stop  offset="0.4217" style="stop-color:#F05B27"/>
		<stop  offset="0.5636" style="stop-color:#F06827"/>
		<stop  offset="0.6915" style="stop-color:#F17827"/>
		<stop  offset="0.81" style="stop-color:#F18B28"/>
		<stop  offset="0.92" style="stop-color:#F3A129"/>
		<stop  offset="1" style="stop-color:#F4B628"/>
	</linearGradient>
	<path class="st1" d="M48.57,1.27C48.55,0.59,47.93-0.01,47.25,0C46.57,0.02,45.98,0.64,46,1.33c0.02,0.69,0.62,1.29,1.31,1.27
		C47.99,2.58,48.59,1.96,48.57,1.27z"/>
	<linearGradient id="SVGID_3_" gradientUnits="userSpaceOnUse" x1="28.8033" y1="3.6546" x2="32.9425" y2="3.6546">
		<stop  offset="0" style="stop-color:#F05126"/>
		<stop  offset="0.2546" style="stop-color:#F05326"/>
		<stop  offset="0.4217" style="stop-color:#F05B27"/>
		<stop  offset="0.5636" style="stop-color:#F06827"/>
		<stop  offset="0.6915" style="stop-color:#F17827"/>
		<stop  offset="0.81" style="stop-color:#F18B28"/>
		<stop  offset="0.92" style="stop-color:#F3A129"/>
		<stop  offset="1" style="stop-color:#F4B628"/>
	</linearGradient>
	<path class="st2" d="M30.89,1.58c1.16,0,2.03,0.87,2.05,2.01c0.02,1.18-0.91,2.13-2.07,2.13c-1.14-0.01-2.1-1.01-2.07-2.15
		C28.84,2.44,29.74,1.58,30.89,1.58z"/>
	<linearGradient id="SVGID_4_" gradientUnits="userSpaceOnUse" x1="38.0989" y1="6.3232" x2="43.8228" y2="6.3232">
		<stop  offset="0" style="stop-color:#F05126"/>
		<stop  offset="0.2546" style="stop-color:#F05326"/>
		<stop  offset="0.4217" style="stop-color:#F05B27"/>
		<stop  offset="0.5636" style="stop-color:#F06827"/>
		<stop  offset="0.6915" style="stop-color:#F17827"/>
		<stop  offset="0.81" style="stop-color:#F18B28"/>
		<stop  offset="0.92" style="stop-color:#F3A129"/>
		<stop  offset="1" style="stop-color:#F4B628"/>
	</linearGradient>
	<path class="st3" d="M43.82,6.28c0.01,1.64-1.28,2.94-2.89,2.91c-1.52-0.03-2.82-1.34-2.84-2.86c-0.02-1.61,1.29-2.89,2.93-2.87
		C42.62,3.48,43.81,4.67,43.82,6.28z"/>
	<linearGradient id="SVGID_5_" gradientUnits="userSpaceOnUse" x1="41.5582" y1="17.1189" x2="46.454" y2="17.1189">
		<stop  offset="0" style="stop-color:#F05126"/>
		<stop  offset="0.2546" style="stop-color:#F05326"/>
		<stop  offset="0.4217" style="stop-color:#F05B27"/>
		<stop  offset="0.5636" style="stop-color:#F06827"/>
		<stop  offset="0.6915" style="stop-color:#F17827"/>
		<stop  offset="0.81" style="stop-color:#F18B28"/>
		<stop  offset="0.92" style="stop-color:#F3A129"/>
		<stop  offset="1" style="stop-color:#F4B628"/>
	</linearGradient>
	<path class="st4" d="M44,14.67c1.37-0.01,2.42,0.99,2.45,2.35c0.04,1.42-1.02,2.53-2.4,2.54c-1.35,0.01-2.51-1.15-2.49-2.49
		C41.58,15.75,42.66,14.69,44,14.67z"/>
	<g>
		<path class="st5" d="M69.08,27.8l1.85,1.71c-1.4,1.77-3.56,2.9-6,2.9c-4.24,0-7.66-3.43-7.66-7.65s3.42-7.65,7.66-7.65
			c2.44,0,4.6,1.13,6,2.9l-1.85,1.71c-0.94-1.16-2.49-2.06-4.15-2.06c-2.71,0-4.96,2.29-4.96,5.1s2.25,5.1,4.96,5.1
			C66.6,29.85,68.14,28.96,69.08,27.8z"/>
		<path class="st5" d="M72.32,24.75c0-4.23,3.42-7.65,7.66-7.65s7.66,3.43,7.66,7.65c0,4.25-3.42,7.67-7.66,7.67
			S72.32,29,72.32,24.75z M84.94,24.76c0-2.82-2.22-5.11-4.96-5.11c-2.74,0-4.96,2.29-4.96,5.11c0,2.83,2.22,5.12,4.96,5.12
			C82.72,29.88,84.94,27.59,84.94,24.76z"/>
		<path class="st5" d="M89.02,24.75c0-4.23,3.42-7.65,7.66-7.65s7.66,3.43,7.66,7.65c0,4.25-3.42,7.67-7.66,7.67
			S89.02,29,89.02,24.75z M101.64,24.76c0-2.82-2.22-5.11-4.96-5.11c-2.74,0-4.96,2.29-4.96,5.11c0,2.83,2.22,5.12,4.96,5.12
			C99.42,29.88,101.64,27.59,101.64,24.76z"/>
		<path class="st5" d="M111.18,25.8l-2.46,2.55v3.78h-2.7V11.14h2.7v13.2l6.88-6.92h3.65l-6.17,6.41l6.39,8.3h-3.38L111.18,25.8z"/>
		<path class="st5" d="M126.88,29.88c1.71-0.01,3.76-0.61,5.33-1.52l1.15,2.26c-1.96,1.11-4.34,1.81-6.48,1.81
			c-4.62,0-7.76-2.96-7.76-7.67c-0.01-4.23,3.29-7.66,7.36-7.66c4.07,0,7.36,3.43,7.36,7.65c0,0.5-0.05,1-0.15,1.47h-11.72
			C122.49,28.57,124.31,29.88,126.88,29.88z M131.05,23.73c-0.43-2.33-2.31-4.08-4.57-4.08s-4.14,1.75-4.57,4.08H131.05z"/>
		<path class="st5" d="M142.98,29.88c1.71-0.01,3.76-0.61,5.33-1.52l1.15,2.26c-1.96,1.11-4.34,1.81-6.48,1.81
			c-4.62,0-7.76-2.96-7.76-7.67c-0.01-4.23,3.29-7.66,7.36-7.66c4.07,0,7.36,3.43,7.36,7.65c0,0.5-0.05,1-0.15,1.47h-11.72
			C138.59,28.57,140.41,29.88,142.98,29.88z M147.15,23.73c-0.43-2.33-2.31-4.08-4.57-4.08s-4.14,1.75-4.57,4.08H147.15z"/>
	</g>
</g>
</svg>
